<?xml version="1.0" encoding="UTF-8" standalone="no"?>
<svg
   xmlns:dc="http://purl.org/dc/elements/1.1/"
   xmlns:cc="http://creativecommons.org/ns#"
   xmlns:rdf="http://www.w3.org/1999/02/22-rdf-syntax-ns#"
   xmlns:svg="http://www.w3.org/2000/svg"
   xmlns="http://www.w3.org/2000/svg"
   xmlns:sodipodi="http://sodipodi.sourceforge.net/DTD/sodipodi-0.dtd"
   xmlns:inkscape="http://www.inkscape.org/namespaces/inkscape"
   version="1.0"
   width="803.000000pt"
   height="729.000000pt"
   viewBox="0 0 803.000000 729.000000"
   preserveAspectRatio="xMidYMid meet"
   id="svg3731"
   sodipodi:docname="pr00t.svg"
   inkscape:version="0.92.3 (2405546, 2018-03-11)">
  <defs
     id="defs3735" />
  <sodipodi:namedview
     pagecolor="#ffffff"
     bordercolor="#666666"
     borderopacity="1"
     objecttolerance="10"
     gridtolerance="10"
     guidetolerance="10"
     inkscape:pageopacity="0"
     inkscape:pageshadow="2"
     inkscape:window-width="1920"
     inkscape:window-height="986"
     id="namedview3733"
     showgrid="false"
     inkscape:zoom="0.33539095"
     inkscape:cx="147.57536"
     inkscape:cy="294.01825"
     inkscape:window-x="-11"
     inkscape:window-y="-11"
     inkscape:window-maximized="1"
     inkscape:current-layer="svg3731" />
  <metadata
     id="metadata3725">
Created by potrace 1.15, written by Peter Selinger 2001-2017
<rdf:RDF>
  <cc:Work
     rdf:about="">
    <dc:format>image/svg+xml</dc:format>
    <dc:type
       rdf:resource="http://purl.org/dc/dcmitype/StillImage" />
    <dc:title></dc:title>
  </cc:Work>
</rdf:RDF>
</metadata>
  <rect
     style="fill:#d40000;stroke-width:0.75"
     id="rect3753"
     width="817.32971"
     height="739.06287"
     x="-5.5904908"
     y="-2.2361963" />
  <g
     style="fill:#000000;stroke:none"
     transform="matrix(0.1,0,0,-0.1,26.853508,738.6955)"
     id="g3729">
    <path
       inkscape:connector-curvature="0"
       d="m 3845,7081 c -139,-23 -301,-87 -415,-164 -113,-77 -237,-222 -303,-352 -140,-281 -137,-597 10,-875 54,-103 102,-167 187,-248 35,-34 61,-62 56,-62 -4,0 -53,-5 -109,-10 -166,-17 -299,-68 -429,-165 -93,-68 -637,-600 -672,-656 -73,-119 -79,-256 -17,-382 33,-66 66,-102 402,-436 l 366,-365 -150,-150 -151,-150 -228,227 c -200,199 -236,230 -293,256 -200,91 -427,14 -521,-177 -31,-62 -33,-73 -33,-172 0,-175 -9,-162 462,-631 374,-373 402,-398 458,-419 74,-27 178,-37 240,-21 110,28 128,42 486,399 l 347,344 78,9 c 44,6 105,17 138,25 32,8 60,13 63,11 2,-3 106,-247 230,-544 197,-472 245,-585 261,-615 2,-4 -698,-9 -1555,-10 l -1558,-3 -77,-38 C 883,1589 787,1317 897,1082 c 33,-71 130,-173 197,-208 l 55,-28 3,-146 c 3,-159 13,-193 71,-251 52,-52 104,-73 182,-74 105,0 182,47 236,145 8,16 15,73 19,160 l 5,135 h 2055 2055 l 6,-130 c 3,-71 9,-139 14,-150 23,-54 67,-103 117,-130 45,-25 64,-30 123,-30 78,1 130,22 182,74 58,58 68,92 71,252 l 3,147 42,18 c 23,11 70,45 104,77 114,107 168,262 144,411 -23,140 -114,273 -230,335 l -61,32 v 799 800 l 308,154 c 317,159 332,169 332,226 0,10 -33,86 -74,168 -75,149 -95,172 -144,172 -30,0 -1626,-798 -1649,-826 -13,-14 -23,-38 -23,-53 0,-38 132,-305 161,-325 13,-9 36,-16 51,-16 16,0 134,53 268,120 132,66 244,120 250,120 7,0 9,-216 8,-652 l -3,-653 -397,-3 c -226,-1 -398,2 -398,7 0,4 9,30 21,56 27,60 38,140 28,208 -4,34 -109,301 -302,767 l -296,715 24,73 c 14,40 27,95 31,121 l 6,49 162,3 c 152,4 164,5 218,32 164,80 254,248 227,419 -20,124 -110,241 -227,296 -52,25 -71,27 -212,32 l -155,5 -6,100 c -14,209 -83,367 -225,512 l -62,63 42,11 c 57,15 195,80 253,120 188,128 323,314 388,535 36,121 45,312 21,433 -63,309 -244,545 -521,681 -55,27 -138,58 -184,70 -93,23 -284,34 -366,21 z m 239,-181 c 172,-24 315,-97 441,-225 163,-164 232,-343 222,-575 -9,-209 -78,-364 -231,-515 -76,-76 -106,-98 -186,-137 -113,-56 -193,-78 -309,-85 -473,-30 -869,388 -812,857 33,269 186,486 428,607 146,73 284,95 447,73 z M 3874,5176 c 195,-55 356,-209 422,-406 18,-51 19,-93 19,-545 0,-554 1,-543 -80,-710 -92,-191 -254,-336 -460,-411 -74,-27 -213,-54 -280,-54 -38,0 -47,-8 -400,-360 -243,-242 -372,-364 -397,-375 -51,-21 -123,-19 -172,5 -57,27 -769,742 -790,792 -20,46 -21,128 -2,171 46,107 189,157 293,103 15,-8 138,-125 273,-261 135,-136 257,-253 272,-261 62,-33 66,-30 318,220 l 235,234 54,5 c 64,8 163,52 213,96 112,98 155,263 108,415 -28,90 -64,135 -268,333 l -177,172 153,153 c 141,144 152,157 152,192 0,51 -36,86 -87,86 -35,0 -48,-11 -237,-199 l -199,-199 6,-38 c 6,-33 36,-68 230,-264 123,-124 232,-238 241,-253 23,-38 32,-125 16,-171 -38,-116 -176,-178 -285,-127 -55,26 -718,692 -740,743 -19,48 -19,108 0,156 18,43 65,92 390,406 374,362 411,377 880,372 186,-3 253,-7 299,-20 z m 958,-861 c 124,-88 122,-269 -4,-353 -40,-26 -48,-27 -185,-30 l -143,-3 v 211 211 l 144,-3 c 142,-3 145,-3 188,-33 z m 1868,-534 c 15,-30 17,-41 7,-49 -17,-14 -415,-212 -426,-212 -10,0 -65,80 -59,86 10,9 434,213 445,214 7,0 22,-18 33,-39 z m -613,-313 23,-21 V 2019 591 l -26,-20 c -35,-28 -69,-26 -99,4 l -25,24 v 1422 1423 l 22,23 c 28,30 74,30 105,1 z m -307,-143 v -55 l -241,-121 c -133,-66 -242,-119 -244,-117 -1,2 -12,22 -24,45 l -21,43 257,129 c 142,72 261,130 266,130 4,1 7,-24 7,-54 z M 4588,2654 c 292,-705 289,-697 240,-786 -81,-147 -292,-147 -371,0 -21,39 -458,1083 -469,1118 -2,6 32,35 74,63 43,29 115,93 165,146 48,52 90,94 93,95 3,0 124,-286 268,-636 z M 5778,1283 5775,995 H 3515 1255 l -53,24 c -192,87 -229,350 -68,487 79,67 -109,62 2384,63 l 2262,1 z m 604,118 c 15,-32 22,-65 22,-111 1,-72 -13,-114 -57,-177 -56,-79 -57,-76 -57,174 v 227 l 35,-34 c 19,-19 45,-54 57,-79 z M 1480,706 c 0,-112 -1,-115 -26,-135 -35,-28 -69,-26 -99,4 -24,23 -25,31 -25,135 v 110 h 75 75 z"
       id="path3727" />
  </g>
  <path
     style="fill:#ffffff;stroke-width:1.05415308"
     d="m 212.22493,933.00303 c -8.91133,-3.33012 -16.54249,-10.13027 -19.64428,-17.50508 -1.44017,-3.42415 -3.20492,-23.68377 -3.36549,-38.63659 l -0.0575,-5.35412 -5.5343,-2.54457 c -7.42845,-3.41545 -22.385,-18.36863 -26.81108,-26.80502 -4.53538,-8.64471 -6.65828,-17.61336 -6.65828,-28.12928 0,-25.08774 12.78529,-44.95673 36.89535,-57.33724 l 7.90615,-4.05981 207.66815,-0.6947 c 114.21749,-0.38209 207.76065,-0.75512 207.87368,-0.82895 0.11305,-0.0738 -1.00408,-2.86188 -2.48249,-6.19564 -1.4784,-3.33376 -14.45779,-34.04914 -28.84307,-68.25641 -35.96247,-85.5164 -33.81007,-80.64271 -35.61477,-80.64271 -0.87498,0 -6.61545,0.93541 -12.75661,2.0787 -6.14116,1.14327 -13.87825,2.44778 -17.19354,2.89892 l -6.02781,0.82022 -44.65942,43.80637 c -25.32659,24.84282 -47.47971,45.68968 -51.17436,48.15687 -9.32251,6.22533 -16.29697,8.01506 -28.62344,7.34513 -12.85159,-0.69848 -19.38411,-2.78743 -27.28142,-8.72393 -8.3369,-6.26697 -95.06723,-92.60672 -102.7437,-102.28102 -9.63008,-12.13634 -10.68206,-15.29641 -10.66965,-32.05077 0.0104,-14.13025 0.0365,-14.283 3.67747,-21.56297 6.84946,-13.69527 18.9968,-23.83051 33.04449,-27.57097 8.07557,-2.15028 21.31386,-1.85677 29.4385,0.65267 3.77165,1.16495 9.65773,3.98798 13.08017,6.27339 3.42244,2.28543 19.16067,16.82975 34.97384,32.32072 l 28.75121,28.16539 20.1865,-20.18651 20.18652,-20.18651 -49.04702,-49.30287 c -40.51898,-40.73032 -49.62771,-50.41754 -52.3866,-55.71364 -8.46081,-16.24174 -8.6787,-33.32399 -0.62774,-49.21351 4.30664,-8.49964 75.54714,-78.81521 92.66105,-91.458 17.04019,-12.58831 36.07758,-19.18106 62.42077,-21.61665 4.20344,-0.38864 7.64261,-0.94468 7.64261,-1.23566 0,-0.29099 -4.31567,-5.08917 -9.59037,-10.66262 -31.66588,-33.45937 -43.89458,-76.86629 -33.72187,-119.69887 8.32918,-35.07029 33.24804,-66.679999 64.82808,-82.234775 22.74836,-11.20472 39.23759,-14.982819 61.16459,-14.014347 22.31204,0.98548 32.27516,3.24961 49.87043,11.333121 36.07542,16.573543 60.44923,46.349916 70.49506,86.120591 4.94808,19.58908 3.82358,46.3474 -2.82309,67.17782 -7.87526,24.68077 -23.86817,47.22857 -44.65689,62.96006 -8.70766,6.58937 -30.05099,17.55198 -38.55495,19.80305 -2.60903,0.69064 -5.12363,1.48775 -5.588,1.77136 -0.46437,0.28361 2.88859,4.40392 7.451,9.15624 19.99133,20.82343 28.03555,39.93285 30.34036,72.07486 l 0.6992,9.75092 10.69316,0.046 c 21.14715,0.0909 31.75762,1.5043 39.34949,5.24176 14.33742,7.05829 26.36622,23.26932 28.87022,38.90792 3.49308,21.81598 -9.0281,44.59061 -30.26264,55.04434 l -7.04417,3.46783 -21.35593,0.56313 c -11.74575,0.30974 -21.54992,0.80033 -21.78702,1.09022 -0.23711,0.28989 -0.99413,3.70166 -1.68226,7.58169 -0.68814,3.88004 -2.49864,11.07849 -4.02334,15.99655 l -2.77218,8.94193 26.94242,65.17324 c 25.86198,62.55968 38.63068,93.98413 48.32689,118.93504 4.1538,10.68884 4.50065,12.33765 4.43513,21.08306 -0.0593,7.91241 -0.6172,10.96143 -3.36077,18.36681 -1.80933,4.88369 -3.01542,9.15301 -2.68019,9.48738 0.79632,0.79429 104.56393,0.66019 105.36028,-0.13616 0.3349,-0.3349 0.88713,-31.13846 1.22716,-68.45236 0.62895,-69.0176 -0.072,-105.26587 -2.03563,-105.26587 -0.58717,0 -14.17429,6.3457 -30.19359,14.10157 -16.0193,7.75587 -31.37059,14.93254 -34.11398,15.94817 -8.95589,3.31552 -11.90539,0.54068 -22.97712,-21.61652 -2.46256,-4.92817 -5.60544,-11.95606 -6.98419,-15.61752 -3.92615,-10.42653 -3.20331,-11.32556 18.34935,-22.82173 22.82279,-12.17367 154.77958,-78.28335 181.84016,-91.101 19.55467,-9.26237 21.01204,-9.78327 23.95768,-8.56315 4.13426,1.71247 9.20541,9.51202 17.72431,27.26042 8.39135,17.48264 8.68129,20.08796 2.80154,25.17406 -2.29015,1.98103 -21.35696,12.2238 -42.37069,22.76171 l -38.20677,19.15986 0.0181,106.99653 0.0181,106.99654 7.45332,4.193 c 4.49561,2.52908 10.02868,6.92383 13.94313,11.07461 18.63494,19.75997 22.74908,46.21147 10.98224,70.60947 -4.22701,8.76453 -18.79323,23.62638 -26.7519,27.29485 l -5.39302,2.48587 -0.71925,18.07012 c -0.84873,21.3233 -2.19073,27.03647 -7.86497,33.48275 -6.45599,7.3344 -13.67074,10.72809 -23.9547,11.26786 -7.59054,0.39839 -9.28368,0.12653 -14.89499,-2.39168 -7.01508,-3.14817 -13.74031,-9.41856 -17.00575,-15.85559 -1.66527,-3.28267 -2.2782,-7.13516 -2.76731,-17.39352 -0.34555,-7.2473 -0.87498,-15.19298 -1.1765,-17.65707 l -0.54823,-4.48015 h -274.0152 c -150.70836,0 -274.01944,0.1186 -274.02463,0.26354 -0.67068,18.75354 -2.41734,35.46647 -4.10539,39.28259 -2.61095,5.9025 -9.61526,12.82023 -15.75685,15.5621 -6.16019,2.75018 -20.03111,3.55115 -25.581,1.47718 z m 19.1052,-25.73539 c 1.87029,-2.37769 2.10196,-4.28311 2.10196,-17.28819 v -14.61598 h -10.67666 -10.67666 l 0.4712,14.76464 c 0.4619,14.47301 0.5299,14.82589 3.4428,17.86631 1.63438,1.70592 3.97358,3.26356 5.19823,3.46142 3.4535,0.55795 7.82679,-1.24854 10.13913,-4.1882 z m 612.46191,3.93703 c 0.48788,0 2.34657,-1.22808 4.13039,-2.72908 l 3.24335,-2.7291 V 715.74933 525.75217 l -2.37185,-2.16033 c -5.98013,-5.44684 -9.84655,-5.77206 -14.98499,-1.26044 l -3.72622,3.27166 V 715.6051 c 0,179.70766 0.10004,190.09262 1.84711,191.67367 2.92801,2.64981 8.03805,5.02677 9.57125,4.45211 0.77215,-0.28941 1.80308,-0.52621 2.29096,-0.52621 z m -37.58977,-71.84791 c 0.379,-7.04843 0.68908,-24.39595 0.68908,-38.55005 V 775.072 l -296.48055,0.47434 c -206.50947,0.33038 -299.49457,0.82712 -306.41264,1.63688 -7.90078,0.92479 -10.77719,1.74821 -14.06415,4.02607 -17.3864,12.04878 -21.73318,36.91658 -9.58397,54.82968 4.12878,6.08758 7.83186,9.23209 15.65961,13.29753 l 5.27077,2.73744 302.11639,0.0491 302.11639,0.0491 0.68907,-12.81534 z m 76.77503,-3.97847 c 5.81265,-8.7771 7.68905,-15.71353 6.87556,-25.41676 -0.71855,-8.57076 -3.91556,-15.39476 -10.63313,-22.6963 l -4.77888,-5.19431 -0.0418,28.63946 c -0.023,15.7517 0.24608,29.3898 0.598,30.3069 1.18077,3.07704 3.11165,1.71266 7.9803,-5.63899 z M 663.39802,749.33268 c 8.8066,-2.61528 17.72392,-12.2037 19.55207,-21.02356 1.48547,-7.16657 -4.57844,-23.8686 -37.31568,-102.77992 -19.69689,-47.47829 -32.70613,-78.26965 -33.37326,-78.99065 -0.23218,-0.25093 -6.22551,5.24229 -13.3185,12.20716 -7.093,6.96488 -16.84249,15.63636 -21.66555,19.26996 -4.82304,3.63361 -9.0209,7.26255 -9.32857,8.0643 -0.30766,0.80177 4.28525,13.20783 10.20647,27.56903 16.33682,39.62292 47.20779,112.77153 50.70004,120.13347 6.62048,13.95652 19.85202,19.91296 34.54298,15.55021 z M 395.34137,676.53904 c 3.90873,-1.85481 24.92944,-21.78453 70.56134,-66.89909 31.06798,-30.71576 32.13287,-31.52623 41.44359,-31.54176 4.92738,-0.008 23.39416,-3.87863 31.12964,-6.52438 15.12971,-5.1748 29.71169,-14.44127 41.57713,-26.42117 9.74612,-9.84014 13.85713,-15.64571 20.73098,-29.2762 7.75404,-15.37589 8.9248,-19.98082 10.04493,-39.5099 1.20665,-21.03759 1.2347,-86.06111 0.0468,-108.57777 -0.80849,-15.32544 -1.18286,-17.56346 -4.09746,-24.49538 -4.52318,-10.75762 -9.8864,-18.53665 -19.15262,-27.77965 -9.11517,-9.09232 -19.54883,-15.73257 -30.77183,-19.58401 -15.51052,-5.32277 -79.37404,-5.8424 -98.36013,-0.8003 -15.90727,4.22447 -27.15149,12.01377 -54.38784,37.67657 -35.76191,33.6958 -57.90462,56.43999 -60.61551,62.26206 -3.34991,7.19446 -3.41288,15.55254 -0.16287,21.61485 5.36852,10.01399 90.53633,95.48657 99.28083,99.6361 5.09469,2.4176 15.7697,2.16921 21.68324,-0.50452 13.66988,-6.18066 19.77611,-20.30708 15.29719,-35.38923 -1.41184,-4.75417 -4.4438,-8.23647 -30.22561,-34.71484 -15.76101,-16.18684 -29.99746,-31.53954 -31.63657,-34.11714 -5.26749,-8.28341 -5.6403,-7.6843 21.27746,-34.19263 24.47063,-24.09843 29.17415,-28.04843 33.40761,-28.05561 9.31181,-0.0158 14.03866,10.61973 8.04403,18.09931 -1.54584,1.92878 -10.67744,11.45875 -20.29244,21.1777 l -17.48179,17.67082 24.3482,23.96823 c 31.53689,31.04471 35.95012,37.73014 37.04632,56.11989 1.68007,28.18518 -14.94078,49.13751 -43.27819,54.55672 l -8.62895,1.65019 -27.93506,27.58933 c -29.69072,29.32327 -35.48295,34.26891 -40.1351,34.26891 -3.95973,0 -5.22881,-1.12635 -42.61591,-37.82288 -21.08402,-20.69457 -34.17485,-32.7575 -36.89536,-33.99833 -4.86067,-2.21696 -16.0025,-2.5163 -21.27709,-0.57162 -13.90571,5.12687 -20.75953,18.48792 -17.59648,34.30314 0.94028,4.70142 10.05705,14.94185 43.90243,49.31353 36.73548,37.30673 60.68014,59.76118 65.30963,61.24509 5.45605,1.74884 16.36089,1.54799 20.41546,-0.37603 z m 379.66185,-111.62689 31.88813,-15.74862 v -7.08354 c 0,-3.89593 -0.41503,-7.34003 -0.92229,-7.65354 -0.50726,-0.3135 -16.64806,7.23765 -35.86844,16.78034 l -34.94616,17.35035 3.22521,6.38908 c 1.77386,3.514 3.56499,6.23732 3.98031,6.05182 0.41531,-0.1855 15.10477,-7.42415 32.64324,-16.08589 z m 129.13375,-63.94879 c 20.5001,-10.27971 27.14444,-14.07921 27.14444,-15.52227 0,-2.61098 -4.42733,-8.98475 -6.52102,-9.38796 -1.35863,-0.26165 -57.95461,25.96106 -59.61511,27.62156 -0.59582,0.59583 1.55957,4.57636 4.77686,8.82182 2.01265,2.65583 3.12876,3.29301 4.8429,2.76477 1.22511,-0.37755 14.44249,-6.81161 29.37193,-14.29792 z m -227.18669,-42.3175 c 16.74741,-8.9306 20.49226,-30.75153 7.76515,-45.24691 -6.08064,-6.92547 -9.82163,-7.94413 -30.67627,-8.35308 l -18.44768,-0.36174 -0.28098,28.31452 -0.28097,28.31452 19.25573,-0.42465 c 15.63064,-0.34471 19.89756,-0.76691 22.66502,-2.24266 z m -84.052,-191.87332 c 19.97155,-5.9341 32.5944,-13.45042 46.18995,-27.504 21.44687,-22.16938 29.70907,-42.40027 29.70907,-72.74585 0,-19.07597 -2.82403,-31.85295 -10.15231,-45.93281 C 647.70754,99.575702 625.33616,79.145798 604.4369,71.086192 589.66202,65.388394 583.36971,64.284887 565.4903,64.25597 c -13.93832,-0.02254 -17.57582,0.328786 -24.75346,2.390818 -30.66555,8.809759 -55.3305,29.262702 -68.06821,56.444282 -14.01139,29.89951 -13.21886,63.57644 2.16744,92.10164 14.63219,27.12715 40.29115,46.42021 70.62532,53.10341 13.05987,2.87734 34.99658,2.17278 47.43689,-1.52358 z"
     id="path3763"
     inkscape:connector-curvature="0"
     transform="scale(0.75000001)" />
</svg>
