<?xml version="1.0" standalone="no"?>
<!DOCTYPE svg PUBLIC "-//W3C//DTD SVG 20010904//EN"
 "http://www.w3.org/TR/2001/REC-SVG-20010904/DTD/svg10.dtd">
<svg version="1.0" xmlns="http://www.w3.org/2000/svg"
 width="379.000000pt" height="383.000000pt" viewBox="0 0 379.000000 383.000000"
 preserveAspectRatio="xMidYMid meet">

<g transform="translate(0.000000,383.000000) scale(0.100000,-0.100000)"
fill="#000000" stroke="none">
<path d="M0 1915 l0 -1915 1895 0 1895 0 0 1915 0 1915 -1895 0 -1895 0 0
-1915z m684 723 c50 -45 109 -101 131 -124 22 -23 159 -147 305 -275 146 -129
281 -248 300 -266 19 -18 38 -33 43 -33 4 0 35 -26 70 -57 l62 -58 3 418 2
417 170 0 170 0 0 -776 c0 -469 -4 -774 -9 -772 -5 2 -99 82 -208 178 -109 97
-228 200 -265 230 -38 29 -68 57 -68 60 0 4 -50 52 -112 106 -61 54 -163 145
-227 202 -63 56 -120 101 -125 99 -8 -3 -12 -135 -13 -408 l-2 -404 -166 -3
-165 -2 0 775 c0 426 3 775 7 775 3 0 47 -37 97 -82z m2350 -2 c153 -45 249
-127 319 -274 38 -81 39 -87 39 -191 1 -104 0 -108 -41 -194 -48 -103 -107
-167 -197 -214 -94 -50 -161 -64 -336 -70 l-158 -6 0 -259 0 -258 -182 2 -183
3 -3 730 c-1 402 0 736 3 743 8 22 659 11 739 -12z"/>
<path d="M2662 2174 l3 -189 110 0 c133 0 191 18 233 73 24 31 27 44 27 111 0
64 -4 81 -24 110 -39 55 -97 75 -234 79 l-117 4 2 -188z"/>
</g>
</svg>
